<?xml version="1.0" encoding="UTF-8" standalone="no"?>
<!DOCTYPE svg PUBLIC "-//W3C//DTD SVG 1.1//EN"
 "http://www.w3.org/Graphics/SVG/1.1/DTD/svg11.dtd">
<!-- Generated by graphviz version 2.38.0 (20140413.2041)
 -->
<!-- Title: %3 Pages: 1 -->
<svg width="438pt" height="332pt"
 viewBox="0.00 0.00 438.39 332.00" xmlns="http://www.w3.org/2000/svg" xmlns:xlink="http://www.w3.org/1999/xlink">
<g id="graph0" class="graph" transform="scale(1 1) rotate(0) translate(4 328)">
<title>%3</title>
<polygon fill="white" stroke="none" points="-4,4 -4,-328 434.393,-328 434.393,4 -4,4"/>
<!-- Arbitrary operation -->
<g id="node1" class="node"><title>Arbitrary operation</title>
<ellipse fill="none" stroke="black" cx="210.036" cy="-306" rx="78.7357" ry="18"/>
<text text-anchor="middle" x="210.036" y="-301.8" font-family="Times,serif" font-size="14.00">Arbitrary operation</text>
</g>
<!-- Commutative operation -->
<g id="node2" class="node"><title>Commutative operation</title>
<ellipse fill="none" stroke="black" cx="111.036" cy="-234" rx="93.7129" ry="18"/>
<text text-anchor="middle" x="111.036" y="-229.8" font-family="Times,serif" font-size="14.00">Commutative operation</text>
</g>
<!-- Arbitrary operation&#45;&gt;Commutative operation -->
<g id="edge1" class="edge"><title>Arbitrary operation&#45;&gt;Commutative operation</title>
<path fill="none" stroke="black" d="M187.075,-288.765C173.896,-279.446 157.154,-267.609 142.736,-257.414"/>
<polygon fill="black" stroke="black" points="144.746,-254.549 134.561,-251.633 140.705,-260.265 144.746,-254.549"/>
</g>
<!-- Associative operation -->
<g id="node3" class="node"><title>Associative operation</title>
<ellipse fill="none" stroke="black" cx="310.036" cy="-234" rx="86.9466" ry="18"/>
<text text-anchor="middle" x="310.036" y="-229.8" font-family="Times,serif" font-size="14.00">Associative operation</text>
</g>
<!-- Arbitrary operation&#45;&gt;Associative operation -->
<g id="edge2" class="edge"><title>Arbitrary operation&#45;&gt;Associative operation</title>
<path fill="none" stroke="black" d="M233.23,-288.765C246.638,-279.379 263.698,-267.437 278.332,-257.193"/>
<polygon fill="black" stroke="black" points="280.437,-259.992 286.622,-251.39 276.423,-254.257 280.437,-259.992"/>
</g>
<!-- Associative and commutative operation -->
<g id="node4" class="node"><title>Associative and commutative operation</title>
<ellipse fill="none" stroke="black" cx="210.036" cy="-162" rx="150.166" ry="18"/>
<text text-anchor="middle" x="210.036" y="-157.8" font-family="Times,serif" font-size="14.00">Associative and commutative operation</text>
</g>
<!-- Commutative operation&#45;&gt;Associative and commutative operation -->
<g id="edge3" class="edge"><title>Commutative operation&#45;&gt;Associative and commutative operation</title>
<path fill="none" stroke="black" d="M134.498,-216.411C147.377,-207.304 163.545,-195.873 177.614,-185.925"/>
<polygon fill="black" stroke="black" points="179.911,-188.587 186.055,-179.956 175.87,-182.872 179.911,-188.587"/>
</g>
<!-- Associative operation&#45;&gt;Associative and commutative operation -->
<g id="edge4" class="edge"><title>Associative operation&#45;&gt;Associative and commutative operation</title>
<path fill="none" stroke="black" d="M286.591,-216.588C273.492,-207.419 256.967,-195.852 242.626,-185.813"/>
<polygon fill="black" stroke="black" points="244.229,-182.663 234.029,-179.795 240.215,-188.397 244.229,-182.663"/>
</g>
<!-- Addition and subtraction -->
<g id="node5" class="node"><title>Addition and subtraction</title>
<ellipse fill="none" stroke="black" cx="98.0363" cy="-90" rx="98.0725" ry="18"/>
<text text-anchor="middle" x="98.0363" y="-85.8" font-family="Times,serif" font-size="14.00">Addition and subtraction</text>
</g>
<!-- Associative and commutative operation&#45;&gt;Addition and subtraction -->
<g id="edge5" class="edge"><title>Associative and commutative operation&#45;&gt;Addition and subtraction</title>
<path fill="none" stroke="black" d="M183.209,-144.233C168.139,-134.814 149.157,-122.951 132.94,-112.815"/>
<polygon fill="black" stroke="black" points="134.593,-109.72 124.258,-107.388 130.883,-115.656 134.593,-109.72"/>
</g>
<!-- Addition and multiplication -->
<g id="node6" class="node"><title>Addition and multiplication</title>
<ellipse fill="none" stroke="black" cx="322.036" cy="-90" rx="108.213" ry="18"/>
<text text-anchor="middle" x="322.036" y="-85.8" font-family="Times,serif" font-size="14.00">Addition and multiplication</text>
</g>
<!-- Associative and commutative operation&#45;&gt;Addition and multiplication -->
<g id="edge6" class="edge"><title>Associative and commutative operation&#45;&gt;Addition and multiplication</title>
<path fill="none" stroke="black" d="M236.863,-144.233C251.824,-134.882 270.64,-123.123 286.779,-113.036"/>
<polygon fill="black" stroke="black" points="288.803,-115.898 295.428,-107.63 285.093,-109.962 288.803,-115.898"/>
</g>
<!-- Addition, subtraction, multiplication, division -->
<g id="node7" class="node"><title>Addition, subtraction, multiplication, division</title>
<ellipse fill="none" stroke="black" cx="210.036" cy="-18" rx="172.451" ry="18"/>
<text text-anchor="middle" x="210.036" y="-13.8" font-family="Times,serif" font-size="14.00">Addition, subtraction, multiplication, division</text>
</g>
<!-- Addition and subtraction&#45;&gt;Addition, subtraction, multiplication, division -->
<g id="edge7" class="edge"><title>Addition and subtraction&#45;&gt;Addition, subtraction, multiplication, division</title>
<path fill="none" stroke="black" d="M124.295,-72.5881C139.243,-63.2458 158.173,-51.4144 174.442,-41.2466"/>
<polygon fill="black" stroke="black" points="176.539,-44.0633 183.164,-35.7953 172.829,-38.1273 176.539,-44.0633"/>
</g>
<!-- Addition and multiplication&#45;&gt;Addition, subtraction, multiplication, division -->
<g id="edge8" class="edge"><title>Addition and multiplication&#45;&gt;Addition, subtraction, multiplication, division</title>
<path fill="none" stroke="black" d="M295.494,-72.411C280.648,-63.1324 261.941,-51.4405 245.817,-41.3631"/>
<polygon fill="black" stroke="black" points="247.501,-38.2882 237.166,-35.9562 243.791,-44.2242 247.501,-38.2882"/>
</g>
</g>
</svg>
