<?xml version="1.0" encoding="UTF-8" standalone="no"?>
<!DOCTYPE svg PUBLIC "-//W3C//DTD SVG 1.1//EN"
 "http://www.w3.org/Graphics/SVG/1.1/DTD/svg11.dtd">
<!-- Generated by graphviz version 2.38.0 (20140413.2041)
 -->
<!-- Title: %3 Pages: 1 -->
<svg width="618pt" height="332pt"
 viewBox="0.00 0.00 617.63 332.00" xmlns="http://www.w3.org/2000/svg" xmlns:xlink="http://www.w3.org/1999/xlink">
<g id="graph0" class="graph" transform="scale(1 1) rotate(0) translate(4 328)">
<title>%3</title>
<polygon fill="white" stroke="none" points="-4,4 -4,-328 613.626,-328 613.626,4 -4,4"/>
<!-- arbitrary -->
<g id="node1" class="node"><title>arbitrary</title>
<ellipse fill="none" stroke="black" cx="303.391" cy="-306" rx="184.531" ry="18"/>
<text text-anchor="middle" x="303.391" y="-301.8" font-family="Times,serif" font-size="14.00">1, 2, 12, 120, 1680, 30240, 665280, 17297280, ...</text>
</g>
<!-- commutative -->
<g id="node2" class="node"><title>commutative</title>
<ellipse fill="none" stroke="black" cx="149.391" cy="-234" rx="149.283" ry="18"/>
<text text-anchor="middle" x="149.391" y="-229.8" font-family="Times,serif" font-size="14.00">1, 1, 3, 15, 105, 945, 10395, 135135, ...</text>
</g>
<!-- arbitrary&#45;&gt;commutative -->
<g id="edge1" class="edge"><title>arbitrary&#45;&gt;commutative</title>
<path fill="none" stroke="black" d="M266.505,-288.233C244.997,-278.457 217.697,-266.048 194.867,-255.671"/>
<polygon fill="black" stroke="black" points="196.263,-252.461 185.711,-251.509 193.367,-258.833 196.263,-252.461"/>
</g>
<!-- associative -->
<g id="node3" class="node"><title>associative</title>
<ellipse fill="none" stroke="black" cx="457.391" cy="-234" rx="140.596" ry="18"/>
<text text-anchor="middle" x="457.391" y="-229.8" font-family="Times,serif" font-size="14.00">1, 2, 6, 24, 120, 720, 5040, 40320, ...</text>
</g>
<!-- arbitrary&#45;&gt;associative -->
<g id="edge2" class="edge"><title>arbitrary&#45;&gt;associative</title>
<path fill="none" stroke="black" d="M340.278,-288.233C361.785,-278.457 389.085,-266.048 411.916,-255.671"/>
<polygon fill="black" stroke="black" points="413.416,-258.833 421.072,-251.509 410.52,-252.461 413.416,-258.833"/>
</g>
<!-- basic -->
<g id="node4" class="node"><title>basic</title>
<ellipse fill="none" stroke="black" cx="303.391" cy="-162" rx="87.4743" ry="18"/>
<text text-anchor="middle" x="303.391" y="-157.8" font-family="Times,serif" font-size="14.00">1, 1, 1, 1, 1, 1, 1, 1, ...</text>
</g>
<!-- commutative&#45;&gt;basic -->
<g id="edge3" class="edge"><title>commutative&#45;&gt;basic</title>
<path fill="none" stroke="black" d="M185.887,-216.411C208.011,-206.355 236.37,-193.464 259.686,-182.866"/>
<polygon fill="black" stroke="black" points="261.351,-185.954 269.006,-178.63 258.454,-179.582 261.351,-185.954"/>
</g>
<!-- associative&#45;&gt;basic -->
<g id="edge4" class="edge"><title>associative&#45;&gt;basic</title>
<path fill="none" stroke="black" d="M421.285,-216.588C399.095,-206.501 370.52,-193.513 347.061,-182.85"/>
<polygon fill="black" stroke="black" points="348.238,-179.54 337.686,-178.588 345.341,-185.913 348.238,-179.54"/>
</g>
<!-- addsub -->
<g id="node5" class="node"><title>addsub</title>
<ellipse fill="none" stroke="black" cx="156.391" cy="-90" rx="118.379" ry="18"/>
<text text-anchor="middle" x="156.391" y="-85.8" font-family="Times,serif" font-size="14.00">1, 3, 7, 15, 31, 63, 127, 255, ...</text>
</g>
<!-- basic&#45;&gt;addsub -->
<g id="edge5" class="edge"><title>basic&#45;&gt;addsub</title>
<path fill="none" stroke="black" d="M270.402,-145.291C249.496,-135.335 222.231,-122.352 199.606,-111.578"/>
<polygon fill="black" stroke="black" points="201.081,-108.404 190.547,-107.265 198.071,-114.724 201.081,-108.404"/>
</g>
<!-- addmul -->
<g id="node6" class="node"><title>addmul</title>
<ellipse fill="none" stroke="black" cx="451.391" cy="-90" rx="158.47" ry="18"/>
<text text-anchor="middle" x="451.391" y="-85.8" font-family="Times,serif" font-size="14.00">1, 2, 8, 52, 472, 5504, 78416, 1320064, ...</text>
</g>
<!-- basic&#45;&gt;addmul -->
<g id="edge6" class="edge"><title>basic&#45;&gt;addmul</title>
<path fill="none" stroke="black" d="M336.606,-145.291C357.429,-135.442 384.519,-122.629 407.152,-111.924"/>
<polygon fill="black" stroke="black" points="408.682,-115.072 416.225,-107.633 405.689,-108.744 408.682,-115.072"/>
</g>
<!-- all4 -->
<g id="node7" class="node"><title>all4</title>
<ellipse fill="none" stroke="black" cx="303.391" cy="-18" rx="215.139" ry="18"/>
<text text-anchor="middle" x="303.391" y="-13.8" font-family="Times,serif" font-size="14.00">1, 6, 68, 1170, 27142, 793002, 27914126, 1150212810, ...</text>
</g>
<!-- addsub&#45;&gt;all4 -->
<g id="edge7" class="edge"><title>addsub&#45;&gt;all4</title>
<path fill="none" stroke="black" d="M190.856,-72.5881C211.202,-62.8998 237.169,-50.5346 259.031,-40.1239"/>
<polygon fill="black" stroke="black" points="260.598,-43.2547 268.121,-35.7953 257.588,-36.9346 260.598,-43.2547"/>
</g>
<!-- addmul&#45;&gt;all4 -->
<g id="edge8" class="edge"><title>addmul&#45;&gt;all4</title>
<path fill="none" stroke="black" d="M416.317,-72.411C395.899,-62.7534 369.952,-50.4813 348.08,-40.1365"/>
<polygon fill="black" stroke="black" points="349.52,-36.9459 338.984,-35.8342 346.527,-43.2739 349.52,-36.9459"/>
</g>
</g>
</svg>
